PathFileType	4	(X/Y/Z)	Walk3.trc
DataRate	CameraRate	NumFrames	NumMarkers	Units	OrigDataRate	OrigDataStartFrame	OrigNumFrames
200.000000	200.000000	6	58	mm	200.000000	337	499
Frame#	Times		LFHD		RFHD		RASI		RACR1		RUA1		RElbow		RFA1		RCAR		LACR1		LUA1		RTH3		RTH2		LLFC		LTB3		LTB2		LMT1		LMT5		LCAR		LTH3		RBHD		RWRU		RLFC		RTB2		LWRR		LASI		LTH2		C7		LElbow		RTH1		RTB4		RMT1		RBack		CLAV		LFA1		RTB3		RTB1		STRN		RToe		LTB1		RWRR		LTB4		LPSI		LTH4		LTH1		LElbowM		LWRU		RPSI		RMMAL		RLMAL		LToe		RTH4		LBHD		LCAL		RMT5		RCAL		T10		LLMAL		LMMAL
			X1	Y1	Z1	X2	Y2	Z2	X3	Y3	Z3	X4	Y4	Z4	X5	Y5	Z5	X6	Y6	Z6	X7	Y7	Z7	X8	Y8	Z8	X9	Y9	Z9	X10	Y10	Z10	X11	Y11	Z11	X12	Y12	Z12	X13	Y13	Z13	X14	Y14	Z14	X15	Y15	Z15	X16	Y16	Z16	X17	Y17	Z17	X18	Y18	Z18	X19	Y19	Z19	X20	Y20	Z20	X21	Y21	Z21	X22	Y22	Z22	X23	Y23	Z23	X24	Y24	Z24	X25	Y25	Z25	X26	Y26	Z26	X27	Y27	Z27	X28	Y28	Z28	X29	Y29	Z29	X30	Y30	Z30	X31	Y31	Z31	X32	Y32	Z32	X33	Y33	Z33	X34	Y34	Z34	X35	Y35	Z35	X36	Y36	Z36	X37	Y37	Z37	X38	Y38	Z38	X39	Y39	Z39	X40	Y40	Z40	X41	Y41	Z41	X42	Y42	Z42	X43	Y43	Z43	X44	Y44	Z44	X45	Y45	Z45	X46	Y46	Z46	X47	Y47	Z47	X48	Y48	Z48	X49	Y49	Z49	X50	Y50	Z50	X51	Y51	Z51	X52	Y52	Z52	X53	Y53	Z53	X54	Y54	Z54	X55	Y55	Z55	X56	Y56	Z56	X57	Y57	Z57	X58	Y58	Z58

337	1.685	332.7	1600.3	-19.655	326.48	1596.7	74.737	339.44	987.32	160.72	217.15	1380.7	167.9	201.57	1198.9	262.79	147.29	1079.9	290.23	157.35	933.92	311.91	248.64	786.84	337.86	211.92	1387.1	-142.87	208.73	1206.6	-238.6	264.81	584.84	185.11	320.28	673.53	191.25	303.29	477.02	-140.51	122.55	234.02	-81.163	174.94	308.27	-130.19	59.993	79.119	-46.631	24.588	96.663	-112.31	294.09	796	-263.78	282.04	591.34	-159.93	169.35	1557.9	80.248	183.87	827.99	325.14	263.67	498.81	158.61	265.43	259.54	135.44	273.31	843.93	-226.24	330.45	963.68	-128.92	319.39	689.94	-169.8	138.73	1422.3	20.722	178.4	1081.4	-267.11	265.09	751.01	233.27	286.47	256.79	76.105	341.7	33.926	40.094	91.905	1322.9	125.07	278.42	1349.2	10.54	196.26	943.05	-279.51	275.2	172.23	78.24	297.13	343.45	81.087	342.76	1248.1	14.301	409.56	29.484	67.896	265.46	331.82	-78.399	241.72	837.33	285.07	192.95	282.81	-77.689	87.372	966.86	-22.435	262.74	673.83	-173.24	243.68	753.21	-197.85	137.09	1056.5	-198.2	229.96	830.49	-282.44	89.823	976.53	66.902	240.6	69.951	19.22	227.48	61.179	101.38	96.581	38.911	-84.445	263.33	667	207.29	182.73	1555.2	-60.604	-46.993	222.6	-54.53	312.09	25.561	117.57	163.48	28.061	66.547	75.859	1153.3	12.767	9.5078	196.89	-101.33	31.547	180.2	-20.595
338	1.69	338.07	1600.7	-19.648	331.84	1597.1	74.746	344.41	987.24	160.89	222.73	1381.1	167.92	207.35	1199.4	263.1	153.62	1080.4	290.83	164.89	934.47	312.58	257.66	788.33	338.41	217.14	1387.3	-142.89	212.99	1206.8	-238.55	268.24	584.81	184.81	324.18	673.22	190.47	313.56	478.32	-140.3	136.3	232.96	-80.874	187.62	307.96	-129.87	77.347	77.765	-46.974	41.717	94.87	-112.66	295.08	795.32	-264.3	290.59	592.21	-159.81	174.76	1558.1	80.266	192.38	828.73	325.75	265.61	498.76	158.51	265.89	259.53	135.46	274.75	843.4	-226.67	335.78	964.36	-128.69	326.34	691.35	-170.38	144.23	1422.6	20.835	181.99	1081.8	-267	269.73	750.93	232.91	286.97	256.74	76.149	341.73	33.905	40.098	97.375	1323.4	125.27	283.88	1349.5	10.488	198.65	943.39	-279.68	275.49	172.2	78.256	297.82	343.37	81.165	348.18	1248.3	13.752	409.56	29.513	67.934	277.78	332.79	-78.063	250.01	838.54	285.46	206.01	282.77	-77.367	92.483	967.35	-22.319	269.91	674.36	-173.15	249.37	753.4	-197.72	140.66	1057.2	-197.99	231.33	830.56	-282.96	95.038	976.95	67.006	240.65	69.985	19.188	227.55	61.236	101.35	115.22	38.641	-84.875	267.37	666.96	206.95	188.14	1555.5	-60.587	-33.536	218.33	-54.29	312.09	25.557	117.58	163.51	28.209	66.475	81.131	1153.7	13.19	23.905	194.13	-101.05	46.168	177.76	-20.33
339	1.695	343.42	1601	-19.658	337.19	1597.5	74.734	349.35	987.17	161.08	228.32	1381.5	167.92	213.08	1200	263.42	159.91	1080.8	291.4	172.41	934.98	313.22	266.67	789.83	338.96	222.37	1387.5	-142.92	217.27	1207	-238.5	271.62	584.79	184.52	328.07	672.88	189.65	323.73	479.61	-140.03	150.19	231.75	-80.563	200.35	307.5	-129.53	94.942	76.299	-47.212	59.137	92.881	-112.95	296.07	794.65	-264.87	299.08	593.05	-159.65	180.15	1558.3	80.264	200.88	829.46	326.32	267.46	498.73	158.44	266.29	259.53	135.51	276.21	842.86	-227.13	341.13	965.01	-128.44	333.24	692.71	-170.94	149.72	1423	20.937	185.57	1082.2	-266.88	274.46	750.84	232.54	287.47	256.69	76.245	341.76	33.886	40.106	102.85	1323.8	125.45	289.34	1349.7	10.418	201.03	943.7	-279.86	275.77	172.16	78.307	298.52	343.29	81.312	353.59	1248.4	13.19	409.56	29.536	67.976	290.09	333.73	-77.686	258.31	839.75	285.85	219.12	282.65	-77.012	97.586	967.78	-22.256	277.07	674.84	-173.06	255.06	753.53	-197.62	144.24	1057.8	-197.77	232.7	830.61	-283.48	100.21	977.3	67.047	240.71	70.025	19.156	227.61	61.296	101.32	134.15	38.313	-85.141	271.42	666.93	206.61	193.54	1555.6	-60.591	-19.878	213.71	-54.117	312.09	25.553	117.58	163.53	28.357	66.404	86.39	1154.1	13.597	38.515	191.09	-100.79	60.965	175.12	-20.054
340	1.7	348.76	1601.3	-19.685	342.53	1597.8	74.704	354.24	987.1	161.29	233.93	1381.8	167.91	218.76	1200.5	263.73	166.17	1081.2	291.94	179.92	935.46	313.82	275.68	791.33	339.49	227.61	1387.7	-142.95	221.55	1207.1	-238.45	274.93	584.78	184.24	331.96	672.5	188.82	333.8	480.9	-139.72	164.21	230.39	-80.229	213.13	306.92	-129.18	112.77	74.734	-47.355	76.839	90.714	-113.17	297.06	793.98	-265.47	307.51	593.87	-159.45	185.53	1558.5	80.242	209.38	830.17	326.86	269.24	498.71	158.4	266.65	259.53	135.59	277.68	842.31	-227.61	346.51	965.61	-128.15	340.09	694.01	-171.47	155.21	1423.3	21.027	189.12	1082.5	-266.77	279.27	750.75	232.17	287.97	256.64	76.387	341.79	33.867	40.118	108.34	1324.2	125.63	294.79	1349.8	10.332	203.39	943.99	-280.03	276.04	172.13	78.389	299.23	343.21	81.52	358.98	1248.4	12.62	409.56	29.553	68.02	302.39	334.65	-77.267	266.63	840.95	286.21	232.28	282.43	-76.626	102.68	968.14	-22.248	284.19	675.29	-172.96	260.77	753.6	-197.55	147.82	1058.3	-197.53	234.07	830.65	-284	105.35	977.59	67.025	240.78	70.071	19.123	227.68	61.358	101.28	153.34	37.94	-85.254	275.47	666.9	206.28	198.94	1555.8	-60.615	-6.0065	208.75	-54.01	312.09	25.549	117.58	163.56	28.506	66.335	91.637	1154.4	13.989	53.339	187.78	-100.54	75.938	172.27	-19.768
341	1.705	354.1	1601.6	-19.729	347.86	1598.1	74.655	359.11	987.04	161.52	239.55	1382.1	167.88	224.42	1201	264.05	172.41	1081.6	292.46	187.4	935.9	314.39	284.68	792.82	340.02	232.86	1387.8	-142.99	225.83	1207.2	-238.39	278.15	584.78	183.98	335.82	672.09	187.97	343.75	482.17	-139.36	178.36	228.9	-79.876	225.97	306.21	-128.81	130.83	73.08	-47.412	94.813	88.385	-113.33	298.06	793.32	-266.11	315.87	594.68	-159.21	190.91	1558.6	80.199	217.86	830.87	327.36	270.94	498.71	158.39	266.97	259.53	135.68	279.18	841.75	-228.11	351.91	966.15	-127.83	346.9	695.26	-171.96	160.69	1423.5	21.105	192.66	1082.8	-266.65	284.15	750.66	231.8	288.48	256.59	76.568	341.83	33.849	40.133	113.83	1324.5	125.8	300.24	1350	10.23	205.74	944.26	-280.21	276.3	172.11	78.498	299.94	343.14	81.779	364.35	1248.4	12.046	409.57	29.564	68.067	314.66	335.54	-76.806	274.96	842.13	286.57	245.49	282.13	-76.209	107.78	968.43	-22.295	291.29	675.71	-172.85	266.49	753.6	-197.52	151.41	1058.8	-197.29	235.43	830.68	-284.53	110.44	977.81	66.94	240.86	70.121	19.088	227.75	61.422	101.24	172.78	37.533	-85.231	279.51	666.88	205.95	204.33	1555.8	-60.659	8.0923	203.47	-53.967	312.1	25.545	117.59	163.59	28.654	66.268	96.874	1154.7	14.364	68.38	184.22	-100.32	91.09	169.23	-19.475
342	1.71	359.42	1601.8	-19.79	353.17	1598.3	74.588	363.94	986.98	161.78	245.19	1382.4	167.83	230.04	1201.4	264.38	178.61	1081.9	292.96	194.88	936.3	314.92	293.66	794.31	340.53	238.1	1387.9	-143.04	230.12	1207.3	-238.33	281.27	584.79	183.73	339.65	671.63	187.12	353.57	483.43	-138.95	192.65	227.28	-79.505	238.86	305.38	-128.43	149.11	71.347	-47.395	113.05	85.912	-113.44	299.07	792.66	-266.78	324.15	595.47	-158.93	196.28	1558.6	80.134	226.32	831.54	327.82	272.57	498.72	158.42	267.26	259.54	135.8	280.69	841.18	-228.63	357.32	966.63	-127.5	353.66	696.45	-172.43	166.17	1423.7	21.17	196.17	1083.1	-266.53	289.09	750.55	231.44	288.98	256.54	76.782	341.86	33.83	40.151	119.35	1324.8	125.98	305.67	1350	10.113	208.09	944.5	-280.39	276.56	172.08	78.626	300.67	343.06	82.078	369.7	1248.4	11.475	409.58	29.569	68.116	326.91	336.41	-76.304	283.3	843.3	286.91	258.75	281.75	-75.762	112.87	968.65	-22.398	298.35	676.09	-172.73	272.23	753.56	-197.51	155.01	1059.3	-197.03	236.79	830.68	-285.06	115.49	977.96	66.792	240.94	70.176	19.05	227.82	61.486	101.19	192.45	37.101	-85.09	283.53	666.85	205.64	209.72	1555.9	-60.723	22.433	197.89	-53.985	312.1	25.54	117.59	163.61	28.801	66.206	102.1	1154.9	14.722	83.641	180.42	-100.12	106.42	166.01	-19.176
